<?xml version="1.0" encoding="utf-8"?>
<!-- Generator: Adobe Illustrator 27.8.0, SVG Export Plug-In . SVG Version: 6.00 Build 0)  -->
<svg version="1.1" id="Laag_1" xmlns="http://www.w3.org/2000/svg" xmlns:xlink="http://www.w3.org/1999/xlink" x="0px" y="0px"
	 viewBox="0 0 1868.6 432" style="enable-background:new 0 0 1868.6 432;" xml:space="preserve">
<g>
	<path style="fill:#252525;" d="M229.5,72.8c-3.1-2.8-7.1-4.9-12-6.5c-4.8-1.5-10.5-2.3-17.1-2.3h-30c-1.2,0-2.2,1-2.2,2.2v94.3
		c0,1.2,1,2.2,2.2,2.2h14c1.2,0,2.2-1,2.2-2.2v-30.3c0-1.2,1-2.2,2.2-2.2h11.6c6.4,0,12-0.8,16.8-2.4c4.8-1.6,8.8-3.8,12-6.7
		c3.2-2.9,5.6-6.3,7.2-10.3c1.6-4,2.4-8.4,2.4-13.1c0-4.6-0.8-8.8-2.3-12.7C235,78.9,232.7,75.5,229.5,72.8z M219.2,103
		c-0.8,2.3-2,4.2-3.7,5.7c-1.6,1.6-3.7,2.8-6.2,3.6c-2.5,0.8-5.4,1.3-8.8,1.3h-11.6c-1.2,0-2.2-1-2.2-2.2v-31c0-1.2,1-2.2,2.2-2.2
		h11.6c3.4,0,6.3,0.4,8.8,1.2c2.5,0.8,4.6,1.9,6.2,3.4c1.6,1.5,2.9,3.3,3.7,5.5c0.8,2.1,1.2,4.5,1.2,7.2
		C220.4,98.2,220,100.7,219.2,103z"/>
	<path style="fill:#252525;" d="M315.5,65.3c-1,0.9-1.8,1.8-2.3,2.8l-18,33c-1,1.9-1.9,3.7-2.7,5.5c0,0,0,0.1,0,0.1
		c-0.8,1.8-3.3,1.8-4.1,0c0,0,0,0,0-0.1c-0.8-1.8-1.7-3.6-2.7-5.6l-18.1-33c-0.6-1.2-1.4-2.2-2.4-2.9c-0.9-0.8-2.2-1.2-3.8-1.2
		h-12.3c-1.7,0-2.8,1.9-1.9,3.3l33.7,56.5c0.2,0.3,0.3,0.7,0.3,1.1v35.6c0,1.2,1,2.2,2.2,2.2h14c1.2,0,2.2-1,2.2-2.2v-35.6
		c0-0.4,0.1-0.8,0.3-1.1l33.6-56.5c0.9-1.5-0.2-3.3-1.9-3.3h-12.4C317.8,64,316.5,64.4,315.5,65.3z"/>
	<path style="fill:#252525;" d="M350,79h25.4c1.2,0,2.2,1,2.2,2.2v79.2c0,1.2,1,2.2,2.2,2.2h14c1.2,0,2.2-1,2.2-2.2V81.3
		c0-1.2,1-2.2,2.2-2.2h25.3c1.2,0,2.2-1,2.2-2.2V66.2c0-1.2-1-2.2-2.2-2.2H350c-1.2,0-2.2,1-2.2,2.2v10.7
		C347.8,78.1,348.7,79,350,79z"/>
	<path style="fill:#252525;" d="M502.7,106.4h-41.9c-1.2,0-2.2-1-2.2-2.2V66.2c0-1.2-1-2.2-2.2-2.2h-14.1c-1.2,0-2.2,1-2.2,2.2v94.3
		c0,1.2,1,2.2,2.2,2.2h14.1c1.2,0,2.2-1,2.2-2.2v-38.7c0-1.2,1-2.2,2.2-2.2h41.9c1.2,0,2.2,1,2.2,2.2v38.7c0,1.2,1,2.2,2.2,2.2h14.1
		c1.2,0,2.2-1,2.2-2.2V66.2c0-1.2-1-2.2-2.2-2.2h-14.1c-1.2,0-2.2,1-2.2,2.2v38.1C504.9,105.4,503.9,106.4,502.7,106.4z"/>
	<path style="fill:#252525;" d="M624.3,77.2c-4.4-4.5-9.6-8-15.8-10.6c-6.1-2.5-13-3.8-20.4-3.8c-7.5,0-14.3,1.3-20.5,3.8
		c-6.2,2.5-11.5,6-15.8,10.6c-4.4,4.5-7.8,9.8-10.2,16c-2.4,6.2-3.6,12.9-3.6,20.1s1.2,13.9,3.6,20.1c2.4,6.2,5.8,11.5,10.2,16
		c4.4,4.5,9.7,8,15.8,10.6c6.2,2.5,13,3.8,20.5,3.8c7.5,0,14.3-1.3,20.4-3.8c6.1-2.5,11.4-6,15.8-10.6c4.4-4.5,7.8-9.8,10.2-16
		c2.4-6.2,3.6-12.9,3.6-20.1s-1.2-13.9-3.6-20.1C632,87.1,628.6,81.7,624.3,77.2z M617.1,127.9c-1.4,4.3-3.5,7.9-6.2,10.9
		c-2.7,3-6,5.3-9.8,6.9c-3.8,1.6-8.2,2.4-13,2.4c-4.8,0-9.2-0.8-13-2.4c-3.9-1.6-7.2-3.9-9.9-6.9c-2.7-3-4.8-6.6-6.2-10.9
		c-1.5-4.3-2.2-9.2-2.2-14.6c0-5.4,0.7-10.3,2.2-14.6c1.5-4.3,3.5-8,6.2-11c2.7-3,6-5.3,9.9-6.9c3.9-1.6,8.2-2.4,13-2.4
		c4.8,0,9.2,0.8,13,2.4c3.8,1.6,7.1,3.9,9.8,6.9c2.7,3,4.7,6.7,6.2,11c1.4,4.3,2.2,9.2,2.2,14.6
		C619.2,118.7,618.5,123.6,617.1,127.9z"/>
	<path style="fill:#252525;" d="M719.7,124c0,1.3,0,2.7,0.1,4.3c0.1,1.5,0.2,3.1,0.4,4.7l-51.8-66c-0.5-0.6-1-1.1-1.4-1.5
		c-0.4-0.4-0.8-0.7-1.3-0.9c-0.4-0.2-0.9-0.3-1.5-0.4c-0.5-0.1-1.2-0.1-2-0.1h-7.4c-1.2,0-2.2,1-2.2,2.2v94.3c0,1.2,1,2.2,2.2,2.2
		h11.8c1.2,0,2.2-1,2.2-2.2v-58.4c0-1.2,0-2.5-0.1-3.9c-0.1-1.4-0.2-2.9-0.3-4.3l51.6,65.8c0.9,1.2,1.8,2,2.8,2.5
		c1,0.5,2.2,0.7,3.6,0.7h7.3c1.2,0,2.2-1,2.2-2.2V66.2c0-1.2-1-2.2-2.2-2.2h-11.8c-1.2,0-2.2,1-2.2,2.2V124z"/>
	<path style="fill:#252525;" d="M817.9,295.5c2.8-3,6.1-5.3,10-6.9c3.9-1.6,8.2-2.4,12.8-2.4c4,0,7.2,0.4,9.8,1.2
		c2.6,0.8,4.7,1.7,6.4,2.7c1.7,1,3.1,1.8,4.2,2.7c1.1,0.8,2.2,1.2,3.2,1.2c1,0,1.8-0.2,2.4-0.6c0.6-0.4,1-0.9,1.4-1.4l4.9-6.8
		c0.7-1,0.6-2.5-0.4-3.3c-3.6-3.2-7.7-5.7-12.4-7.8c-5.5-2.3-11.9-3.5-19.2-3.5c-7.5,0-14.4,1.2-20.6,3.7c-6.2,2.5-11.6,6-16,10.4
		c-4.5,4.5-7.9,9.8-10.4,15.9c-2.5,6.2-3.7,13-3.7,20.4c0,7.3,1.1,14.1,3.3,20.3c2.2,6.2,5.4,11.5,9.5,16c4.1,4.5,9.1,7.9,15,10.4
		c5.8,2.5,12.4,3.8,19.8,3.8c8.2,0,15.2-1.3,21.1-4c5.1-2.3,9.6-5.5,13.3-9.7c0.9-1,0.9-2.4,0-3.3l-5.8-6.3
		c-0.7-0.8-1.6-1.2-2.6-1.2c-0.6,0-1.1,0.1-1.6,0.4c-0.5,0.3-1,0.6-1.4,1c-1.5,1.4-3,2.5-4.5,3.4c-1.5,0.9-3.1,1.7-4.8,2.3
		c-1.7,0.6-3.6,1-5.6,1.3c-2,0.3-4.3,0.4-6.8,0.4c-4.2,0-8.1-0.8-11.7-2.4c-3.6-1.6-6.8-3.8-9.5-6.8c-2.7-3-4.8-6.6-6.4-10.9
		c-1.6-4.3-2.4-9.3-2.4-14.8c0-5.4,0.8-10.2,2.4-14.5C812.9,302.2,815.1,298.5,817.9,295.5z"/>
	<path style="fill:#252525;" d="M968.4,284.9c-4.4-4.5-9.6-8-15.8-10.6c-6.1-2.5-13-3.8-20.4-3.8c-7.5,0-14.3,1.3-20.5,3.8
		c-6.2,2.5-11.5,6-15.8,10.6c-4.4,4.5-7.8,9.8-10.2,16c-2.4,6.2-3.6,12.9-3.6,20.1c0,7.2,1.2,13.9,3.6,20.1
		c2.4,6.2,5.8,11.5,10.2,16c4.4,4.5,9.7,8,15.8,10.6c6.2,2.5,13,3.8,20.5,3.8c7.5,0,14.3-1.3,20.4-3.8s11.4-6,15.8-10.6
		c4.4-4.5,7.8-9.8,10.2-16c2.4-6.2,3.6-12.9,3.6-20.1c0-7.2-1.2-13.9-3.6-20.1C976.2,294.7,972.8,289.4,968.4,284.9z M961.2,335.6
		c-1.4,4.3-3.5,7.9-6.2,10.9c-2.7,3-6,5.3-9.8,6.9c-3.8,1.6-8.2,2.4-13,2.4c-4.8,0-9.2-0.8-13-2.4c-3.9-1.6-7.2-3.9-9.9-6.9
		c-2.7-3-4.8-6.6-6.2-10.9c-1.5-4.3-2.2-9.2-2.2-14.6c0-5.4,0.7-10.3,2.2-14.6c1.5-4.3,3.5-8,6.2-11c2.7-3,6-5.3,9.9-6.9
		c3.9-1.6,8.2-2.4,13-2.4c4.8,0,9.2,0.8,13,2.4c3.8,1.6,7.1,3.9,9.8,6.9c2.7,3,4.7,6.7,6.2,11c1.4,4.3,2.2,9.2,2.2,14.6
		C963.3,326.4,962.6,331.3,961.2,335.6z"/>
	<path style="fill:#252525;" d="M1066.5,331.6c0,1.3,0,2.7,0.1,4.3c0.1,1.5,0.2,3.1,0.4,4.7l-51.8-66c-0.5-0.6-1-1.1-1.4-1.5
		c-0.4-0.4-0.8-0.7-1.3-0.9c-0.4-0.2-0.9-0.3-1.5-0.4s-1.2-0.1-2-0.1h-7.2c-1.4,0-2.5,1.1-2.5,2.5v93.8c0,1.4,1.1,2.5,2.5,2.5h11.3
		c1.4,0,2.5-1.1,2.5-2.5v-58.2c0-1.2,0-2.5-0.1-3.9c-0.1-1.4-0.2-2.9-0.3-4.3l51.6,65.8c0.9,1.2,1.8,2,2.8,2.5
		c1,0.5,2.2,0.7,3.6,0.7h7c1.4,0,2.5-1.1,2.5-2.5v-93.8c0-1.4-1.1-2.5-2.5-2.5H1069c-1.4,0-2.5,1.1-2.5,2.5V331.6z"/>
	<path style="fill:#252525;" d="M1105.1,370.4h13.6c1.4,0,2.5-1.1,2.5-2.5v-35.3c0-1.4,1.1-2.5,2.5-2.5h32c1.4,0,2.5-1.1,2.5-2.5
		v-9.8c0-1.4-1.1-2.5-2.5-2.5h-32c-1.4,0-2.5-1.1-2.5-2.5v-24.3c0-1.4,1.1-2.5,2.5-2.5h38.9c1.4,0,2.5-1.1,2.5-2.5v-9.7
		c0-1.4-1.1-2.5-2.5-2.5h-57.4c-1.4,0-2.5,1.1-2.5,2.5v93.8C1102.7,369.3,1103.8,370.4,1105.1,370.4z"/>
	<path style="fill:#252525;" d="M1184.5,370.4h57.4c1.4,0,2.5-1.1,2.5-2.5v-9.8c0-1.4-1.1-2.5-2.5-2.5H1203c-1.4,0-2.5-1.1-2.5-2.5
		v-23c0-1.4,1.1-2.5,2.5-2.5h29.6c1.4,0,2.5-1.1,2.5-2.5v-9.2c0-1.4-1.1-2.5-2.5-2.5H1203c-1.4,0-2.5-1.1-2.5-2.5v-22.5
		c0-1.4,1.1-2.5,2.5-2.5h38.9c1.4,0,2.5-1.1,2.5-2.5v-9.7c0-1.4-1.1-2.5-2.5-2.5h-57.4c-1.4,0-2.5,1.1-2.5,2.5v93.8
		C1182.1,369.3,1183.2,370.4,1184.5,370.4z"/>
	<path style="fill:#252525;" d="M1313.3,330.7c-1.2-1.2-0.8-3.3,0.8-4c1.9-0.8,3.6-1.8,5.2-2.9c2.7-1.8,5-3.9,6.8-6.4
		c1.8-2.4,3.3-5.1,4.2-8.1c1-3,1.5-6.1,1.5-9.4c0-4.2-0.7-8-2.2-11.5c-1.4-3.5-3.7-6.5-6.8-9c-3.1-2.5-7-4.5-11.8-5.8
		c-4.8-1.4-10.6-2.1-17.3-2.1h-27.7c-1.4,0-2.5,1.1-2.5,2.5v93.8c0,1.4,1.1,2.5,2.5,2.5h13.5c1.4,0,2.5-1.1,2.5-2.5v-33.7
		c0-1.4,1.1-2.5,2.5-2.5h5.4c1.8,0,3.2,0.3,4.1,0.8c0.9,0.5,1.8,1.3,2.6,2.5l20.8,31.6c0.8,1.2,1.7,2.1,2.8,2.7c1.1,0.6,2.5,1,4.1,1
		h11.9c2,0,3.1-2.2,2-3.8l-22.1-32.6C1315.2,332.7,1314.3,331.6,1313.3,330.7z M1302.5,317.3c-2.6,0.9-5.6,1.3-9,1.3h-9
		c-1.4,0-2.5-1.1-2.5-2.5v-27.9c0-1.4,1.1-2.5,2.5-2.5h9.3c6.8,0,11.8,1.3,15.1,4c3.3,2.7,5,6.5,5,11.5c0,2.5-0.4,4.8-1.2,6.9
		c-0.8,2.1-2.1,3.9-3.7,5.4C1307.2,315.2,1305.1,316.4,1302.5,317.3z"/>
	<path style="fill:#252525;" d="M1357.7,370.4h57.4c1.4,0,2.5-1.1,2.5-2.5v-9.8c0-1.4-1.1-2.5-2.5-2.5h-38.9c-1.4,0-2.5-1.1-2.5-2.5
		v-23c0-1.4,1.1-2.5,2.5-2.5h29.6c1.4,0,2.5-1.1,2.5-2.5v-9.2c0-1.4-1.1-2.5-2.5-2.5h-29.6c-1.4,0-2.5-1.1-2.5-2.5v-22.5
		c0-1.4,1.1-2.5,2.5-2.5h38.9c1.4,0,2.5-1.1,2.5-2.5v-9.7c0-1.4-1.1-2.5-2.5-2.5h-57.4c-1.4,0-2.5,1.1-2.5,2.5v93.8
		C1355.2,369.3,1356.3,370.4,1357.7,370.4z"/>
	<path style="fill:#252525;" d="M1503.3,331.6c0,1.3,0,2.7,0.1,4.3c0.1,1.5,0.2,3.1,0.4,4.7l-51.8-66c-0.5-0.6-1-1.1-1.4-1.5
		c-0.4-0.4-0.8-0.7-1.3-0.9c-0.4-0.2-0.9-0.3-1.5-0.4c-0.5-0.1-1.2-0.1-2-0.1h-7.2c-1.4,0-2.5,1.1-2.5,2.5v93.8
		c0,1.4,1.1,2.5,2.5,2.5h11.3c1.4,0,2.5-1.1,2.5-2.5v-58.2c0-1.2,0-2.5-0.1-3.9c-0.1-1.4-0.2-2.9-0.3-4.3l51.6,65.8
		c0.9,1.2,1.8,2,2.8,2.5c1,0.5,2.2,0.7,3.6,0.7h7c1.4,0,2.5-1.1,2.5-2.5v-93.8c0-1.4-1.1-2.5-2.5-2.5h-11.3c-1.4,0-2.5,1.1-2.5,2.5
		V331.6z"/>
	<path style="fill:#252525;" d="M1564.1,295.5c2.8-3,6.1-5.3,10-6.9c3.9-1.6,8.2-2.4,12.8-2.4c4,0,7.2,0.4,9.8,1.2
		c2.6,0.8,4.7,1.7,6.4,2.7c1.7,1,3.1,1.8,4.2,2.7c1.1,0.8,2.2,1.2,3.2,1.2c1,0,1.8-0.2,2.4-0.6c0.6-0.4,1-0.9,1.4-1.4l4.9-6.8
		c0.7-1,0.6-2.5-0.4-3.3c-3.6-3.2-7.7-5.7-12.4-7.8c-5.5-2.3-11.9-3.5-19.2-3.5c-7.5,0-14.4,1.2-20.6,3.7c-6.2,2.5-11.6,6-16,10.4
		c-4.5,4.5-7.9,9.8-10.4,15.9c-2.5,6.2-3.7,13-3.7,20.4c0,7.3,1.1,14.1,3.3,20.3c2.2,6.2,5.4,11.5,9.5,16c4.1,4.5,9.1,7.9,15,10.4
		c5.8,2.5,12.4,3.8,19.8,3.8c8.2,0,15.2-1.3,21.1-4c5.1-2.3,9.6-5.5,13.3-9.7c0.9-1,0.9-2.4,0-3.3l-5.8-6.3
		c-0.7-0.8-1.6-1.2-2.6-1.2c-0.6,0-1.1,0.1-1.6,0.4c-0.5,0.3-1,0.6-1.4,1c-1.5,1.4-3,2.5-4.5,3.4c-1.5,0.9-3.1,1.7-4.8,2.3
		c-1.7,0.6-3.6,1-5.6,1.3c-2,0.3-4.3,0.4-6.8,0.4c-4.2,0-8.1-0.8-11.7-2.4c-3.6-1.6-6.8-3.8-9.5-6.8c-2.7-3-4.8-6.6-6.4-10.9
		c-1.6-4.3-2.4-9.3-2.4-14.8c0-5.4,0.8-10.2,2.4-14.5C1559.1,302.2,1561.3,298.5,1564.1,295.5z"/>
	<path style="fill:#252525;" d="M1638.9,370.4h57.4c1.4,0,2.5-1.1,2.5-2.5v-9.8c0-1.4-1.1-2.5-2.5-2.5h-38.9c-1.4,0-2.5-1.1-2.5-2.5
		v-23c0-1.4,1.1-2.5,2.5-2.5h29.6c1.4,0,2.5-1.1,2.5-2.5v-9.2c0-1.4-1.1-2.5-2.5-2.5h-29.6c-1.4,0-2.5-1.1-2.5-2.5v-22.5
		c0-1.4,1.1-2.5,2.5-2.5h38.9c1.4,0,2.5-1.1,2.5-2.5v-9.7c0-1.4-1.1-2.5-2.5-2.5h-57.4c-1.4,0-2.5,1.1-2.5,2.5v93.8
		C1636.4,369.3,1637.5,370.4,1638.9,370.4z"/>
	<path style="fill:#252525;" d="M1865.2,312.7l-114.1-90.5c-11.9-9.5-26-14.5-40.6-14.5h-507.6l111.3-88.3c2.2-1.7,3.4-4.4,3.4-7.1
		s-1.3-5.4-3.4-7.1l-114.1-90.5c-12-9.5-26-14.5-40.6-14.5H158.2c-14.6,0-28.7,5-40.6,14.5L3.4,105c-2.2,1.7-3.4,4.4-3.4,7.1
		s1.3,5.4,3.4,7.1l114.1,90.5c12,9.5,26,14.5,40.6,14.5h304.2l-111.3,88.3c-2.2,1.7-3.4,4.4-3.4,7.1c0,2.8,1.3,5.4,3.4,7.1
		l114.1,90.5c12,9.5,26,14.5,40.6,14.5h177.3c0,0,0,0,0,0c0,0,0,0,0,0h1027.3c14.6,0,28.7-5,40.6-14.5l114.1-90.5
		c2.2-1.7,3.4-4.4,3.4-7.1C1868.6,317,1867.4,314.4,1865.2,312.7z M1283.1,103.6l10.8,8.6l-20.5,16.3L1283.1,103.6z M1268.1,91.7
		l-22.9,59.1l-38.8,30.8l41.2-106.2L1268.1,91.7z M1212.4,47.5l20.3,16.1l-53.5,138c-6.2,3-12.8,4.5-19.6,4.5h-8.6L1212.4,47.5z
		 M1173.8,20.6c5.3,1.8,10.4,4.5,15,8.2l8.6,6.9l-66.1,170.5h-29.5L1173.8,20.6z M1155.2,18.2l-72.9,187.9h-26.5l72.9-187.9H1155.2z
		 M1109.1,18.2l-72.9,187.9h-26.8l72.9-187.9H1109.1z M1062.7,18.2l-72.9,187.9h-26.5l72.9-187.9H1062.7z M1016.7,18.2l-72.9,187.9
		h-28.1l72.9-187.9H1016.7z M969,18.2l-72.9,187.9h-26.3l72.9-187.9H969z M923.2,18.2l-72.9,187.9h-26.5l72.9-187.9H923.2z
		 M877.1,18.2l-72.9,187.9h-27.3l72.9-187.9H877.1z M158.2,206.1c-10.5,0-20.6-3.6-29.3-10.6L23.8,112.2l105.1-83.4
		c8.7-6.9,18.8-10.6,29.3-10.6h672.1l-72.9,187.9H158.2z M505.8,413.8c-10.5,0-20.6-3.6-29.3-10.6l-105.1-83.4l105.1-83.4
		c8.7-6.9,18.8-10.6,29.3-10.6h13.1l-109.4,86.8c-2.2,1.7-3.4,4.4-3.4,7.1c0,2.8,1.3,5.4,3.4,7.1l109.4,86.8H505.8z M564.2,413.8
		c-10.5,0-20.6-3.6-29.3-10.6l-105.1-83.4l105.1-83.4c8.7-6.9,18.8-10.6,29.3-10.6h17.4l-109.4,86.8c-2.2,1.7-3.4,4.4-3.4,7.1
		c0,2.8,1.3,5.4,3.4,7.1l109.4,86.8H564.2z M626.9,413.8c-10.5,0-20.6-3.6-29.3-10.6l-105.1-83.4l105.1-83.4
		c8.7-6.9,18.8-10.6,29.3-10.6h15.2l-109.4,86.8c-2.2,1.7-3.4,4.4-3.4,7.1c0,2.8,1.3,5.4,3.4,7.1l109.4,86.8H626.9z M677.3,412.6
		c-6.8-1.6-13.3-4.7-19.2-9.4l-105.1-83.4l105.1-83.4c8.7-6.9,18.8-10.6,29.3-10.6h17.4l-109.4,86.8c-2.2,1.7-3.4,4.3-3.4,7.1
		c0,2.8,1.3,5.4,3.4,7.1l87.9,70L677.3,412.6z M615.8,319.8l105.1-83.4c8.6-6.8,18.5-10.4,28.8-10.5l-7.1,18.3l-86.4,68.5
		c-2.2,1.7-3.4,4.3-3.4,7.1c0,2.8,1.2,5.4,3.4,7.1l41.4,33.4l-7.3,18.9L615.8,319.8z M729.6,277.7l-25.1,64.8l-28-22.6L729.6,277.7z
		 M1739.8,403.2c-8.7,6.9-18.8,10.6-29.3,10.6H696.4l72.9-187.9h941.2c10.5,0,20.6,3.6,29.3,10.6l105.1,83.4L1739.8,403.2z"/>
</g>
</svg>
